Coordinates
version=1
nRows=9
nColumns=36
inDegrees=yes

Units are S.I. units (second, meters, Newtons, ...)
If the header above contains a line with 'inDegrees', this indicates whether rotational values are in degrees (yes) or radians (no).

endheader
time	pelvis_tilt	pelvis_list	pelvis_rotation	pelvis_tx	pelvis_ty	pelvis_tz	hip_flexion_r	hip_adduction_r	hip_rotation_r	knee_angle_r	knee_angle_r_beta	ankle_angle_r	subtalar_angle_r	mtp_angle_r	hip_flexion_l	hip_adduction_l	hip_rotation_l	knee_angle_l	knee_angle_l_beta	ankle_angle_l	subtalar_angle_l	mtp_angle_l	lumbar_extension	lumbar_bending	lumbar_rotation	arm_flex_r	arm_add_r	arm_rot_r	elbow_flex_r	pro_sup_r	arm_flex_l	arm_add_l	arm_rot_l	elbow_flex_l	pro_sup_l
      1.98333330	    -11.01742248	     -5.17250740	      7.22340641	      0.61137638	      0.96710871	     -0.18130539	     35.08843623	      3.69216712	      5.04804622	     28.50436079	      0.49749495	     -6.90523257	    -28.59607977	     -7.49889931	     18.90384072	      5.90223252	     13.10563356	     20.39588559	      0.35597536	      9.84805098	    -15.11215490	     -7.49889931	     -9.24263944	     13.30490070	      0.10594796	     45.71450098	     10.25852380	     73.61188485	    121.99276739	     90.30217541	     48.17814521	      3.43824347	     63.83540235	    128.63957261	     83.51705657
      2.00000000	    -10.79517270	     -5.29417130	      7.42298992	      0.61166319	      0.96699181	     -0.18133022	     34.34499539	      3.81420035	      5.16625198	     27.53431931	      0.48056453	     -7.27710565	    -29.26142970	     -7.49894268	     18.64399760	      5.78215196	     13.32899990	     20.35584651	      0.35527654	      9.75795459	    -15.09483475	     -7.49894268	     -9.25470063	     13.42718942	      0.01963906	     46.02249560	     10.40194494	     73.59649969	    121.52552719	     90.53219403	     47.89956710	      3.53877547	     63.92048744	    129.07478756	     83.70953014
      2.01666670	    -10.63537137	     -5.39302477	      7.65571183	      0.61174795	      0.96686407	     -0.18141063	     33.58217936	      3.85788623	      5.27937673	     26.58746304	      0.46403877	     -7.27900028	    -29.31502089	     -7.49900482	     18.51587755	      5.71471361	     13.58450020	     20.39164956	      0.35590142	      9.60447073	    -15.11464098	     -7.49900482	     -9.19851821	     13.44653715	     -0.23355990	     46.31014861	     10.44832360	     73.48740208	    121.17212768	     90.47181735	     47.73973022	      3.51474382	     64.00394392	    129.47633118	     83.66734031
      2.03333330	    -10.57186696	     -5.42788457	      7.76970282	      0.61172790	      0.96858120	     -0.18153377	     33.13097362	      3.80401572	      5.24331626	     25.92996849	      0.45256333	     -6.89773697	    -28.89552219	     -7.49898074	     18.36291991	      5.68843367	     13.78768744	     20.22943372	      0.35307022	      9.23144607	    -15.42527806	     -7.49898074	     -9.04311123	     13.31466271	     -0.39865587	     46.76009437	     10.40933204	     73.44716968	    121.37776053	     91.12962339	     47.54379811	      3.48993758	     64.19579833	    129.97620698	     84.19455248
      2.05000000	    -10.34268152	     -5.46658212	      7.76260472	      0.61163875	      0.96704672	     -0.18147884	     32.63544438	      3.91788771	      5.53762193	     25.46741313	      0.44449021	     -7.24221167	    -29.15959792	     -7.49903777	     18.11312863	      5.52056739	     13.55195141	     20.20076801	      0.35256991	      9.40934944	    -14.94282498	     -7.49903777	     -9.07368068	     13.29820414	     -0.67530448	     47.33250668	     10.82177463	     73.47046857	    121.11505487	     90.80171856	     47.63453640	      3.26064268	     64.42984382	    130.32371972	     84.01230418
      2.06666670	    -10.30371666	     -5.55615961	      7.74327143	      0.61143788	      0.96728395	     -0.18158914	     32.43014921	      3.98409332	      5.75563832	     25.30876754	      0.44172132	     -7.04082616	    -28.69519254	     -7.49907912	     18.06226272	      5.35647248	     13.32871159	     20.07645922	      0.35040032	      9.32392622	    -14.78765560	     -7.49907912	     -8.91435969	     13.26731191	     -0.94374733	     47.62478920	     11.00731560	     73.36288275	    121.39700572	     90.39752818	     47.74293589	      3.06476500	     64.43392656	    130.58633063	     83.75725133
      2.08333330	    -10.30625028	     -5.69479349	      7.75567247	      0.61153249	      0.96745092	     -0.18163238	     32.54603003	      4.07881660	      5.82085104	     25.58093382	      0.44647152	     -6.71048980	    -28.29407000	     -7.49913041	     18.21240488	      5.21577657	     13.16112924	     20.21174244	      0.35276145	      9.33607564	    -14.68627976	     -7.49913041	     -8.69547639	     13.32235338	     -1.19566071	     47.79755300	     11.16614149	     73.17251979	    121.51053718	     89.71912071	     47.76244045	      2.97203134	     64.45894029	    130.72656770	     83.17392611
      2.10000000	    -10.08346957	     -5.81134400	      7.68984626	      0.61116023	      0.96806254	     -0.18179821	     32.58149276	      4.15841710	      5.67175990	     26.03541591	      0.45440373	     -6.42713780	    -27.77169541	     -7.49917918	     18.00755461	      5.03607488	     13.00415253	     20.13460853	      0.35141521	      9.28268443	    -14.51128445	     -7.49917918	     -8.82437425	     13.38078730	     -1.45059622	     48.15832247	     11.35095114	     73.19791603	    121.62655694	     89.37736794	     47.85486869	      2.87972668	     64.78873143	    130.64499990	     82.95152494
      2.11666670	     -9.84256975	     -5.88179441	      7.65979487	      0.61059017	      0.97056051	     -0.18188197	     33.01221697	      4.14267652	      5.33660331	     27.30996798	      0.47664886	     -5.78599460	    -26.70787077	     -7.49922717	     17.68083234	      4.84388020	     12.71707998	     19.93453378	      0.34792325	      9.27939942	    -14.15878764	     -7.49922717	     -8.91623928	     13.22167695	     -1.81335830	     48.28187095	     11.36748475	     73.00195581	    121.82650670	     88.91270469	     47.96766024	      2.66408355	     64.93307947	    130.45497857	     82.62966112
